<?xml version="1.0" standalone="no"?>
<!DOCTYPE svg PUBLIC "-//W3C//DTD SVG 20010904//EN"
 "http://www.w3.org/TR/2001/REC-SVG-20010904/DTD/svg10.dtd">
<svg version="1.0" xmlns="http://www.w3.org/2000/svg"
 width="500.000000pt" height="500.000000pt" viewBox="0 0 500.000000 500.000000"
 preserveAspectRatio="xMidYMid meet">

<g transform="translate(0.000000,500.000000) scale(0.100000,-0.100000)"
fill="#0f766e" stroke="none">
<path d="M2821 3862 l-51 -59 -53 15 c-37 11 -99 16 -217 16 -160 1 -168 0
-260 -31 -276 -93 -493 -327 -560 -604 -14 -60 -20 -118 -20 -205 0 -152 21
-241 90 -381 41 -84 66 -119 136 -192 47 -49 111 -107 142 -127 31 -21 59 -39
61 -40 2 -2 -6 -31 -18 -65 -12 -35 -21 -67 -21 -73 0 -6 26 16 59 48 l58 58
31 -16 c99 -51 328 -71 470 -41 269 56 480 223 599 473 150 315 93 678 -147
935 -61 66 -190 165 -231 179 -9 3 -6 22 15 72 21 53 24 71 15 82 -21 26 -47
14 -98 -44z m-183 -159 c12 -3 22 -8 22 -12 0 -3 -169 -195 -375 -426 l-376
-420 210 -5 210 -5 -84 -223 c-46 -122 -87 -227 -90 -232 -18 -30 -183 117
-255 226 -287 438 -21 1021 505 1105 50 8 189 3 233 -8z m101 -100 c-12 -27
-66 -151 -120 -278 l-98 -230 156 -5 156 -5 -149 -165 c-82 -91 -205 -228
-273 -305 -69 -77 -133 -149 -143 -160 -12 -12 -4 13 21 67 61 132 171 394
171 407 0 8 -48 11 -161 11 -157 0 -161 1 -148 19 16 21 603 691 606 691 1 0
-7 -21 -18 -47z m169 -13 c76 -51 166 -148 215 -231 90 -153 121 -360 78 -530
-66 -266 -268 -468 -532 -533 -85 -21 -251 -21 -333 0 -33 8 -64 19 -68 22 -4
4 170 201 387 437 l394 430 -199 3 c-110 1 -200 5 -200 7 0 23 175 435 185
435 7 0 40 -18 73 -40z"/>
<path d="M1907 1893 c-4 -3 -7 -80 -7 -171 l0 -164 110 4 c104 3 111 4 137 30
33 34 35 88 4 122 -19 20 -19 23 -5 38 20 20 22 81 3 104 -24 30 -75 44 -157
44 -43 0 -82 -3 -85 -7z m167 -69 c35 -34 11 -64 -51 -64 l-43 0 0 40 c0 40 0
40 39 40 23 0 46 -7 55 -16z m14 -136 c32 -32 -2 -68 -64 -68 l-44 0 0 40 0
40 48 0 c26 0 53 -5 60 -12z"/>
<path d="M2314 1886 c-73 -33 -113 -116 -95 -198 19 -83 83 -131 175 -131 117
0 189 86 173 205 -6 45 -28 81 -70 112 -35 26 -138 33 -183 12z m145 -82 c27
-22 31 -32 31 -74 0 -64 -34 -100 -95 -100 -54 0 -92 29 -101 76 -18 98 89
162 165 98z"/>
<path d="M2637 1893 c-4 -3 -7 -80 -7 -170 l0 -163 115 0 115 0 0 35 0 35 -75
0 -75 0 0 135 0 135 -33 0 c-19 0 -37 -3 -40 -7z"/>
<path d="M2830 1865 l0 -35 55 0 55 0 0 -135 0 -135 40 0 40 0 0 135 0 135 50
0 50 0 0 35 0 35 -145 0 -145 0 0 -35z"/>
<path d="M840 1276 l0 -56 35 0 c33 0 64 28 48 44 -4 4 -7 19 -8 34 0 24 -4
27 -37 30 l-38 3 0 -55z m55 24 c3 -5 -3 -10 -14 -10 -12 0 -21 5 -21 10 0 6
6 10 14 10 8 0 18 -4 21 -10z m3 -47 c2 -8 -5 -13 -17 -13 -12 0 -21 6 -21 16
0 18 31 15 38 -3z"/>
<path d="M960 1287 c0 -47 13 -67 45 -67 12 0 26 5 33 12 14 14 16 98 2 98 -5
0 -10 -15 -10 -32 0 -42 -13 -63 -34 -55 -11 4 -16 19 -16 47 0 22 -4 40 -10
40 -5 0 -10 -19 -10 -43z"/>
<path d="M1090 1315 c-15 -17 -6 -33 26 -45 13 -5 24 -14 24 -20 0 -13 -27
-13 -35 0 -4 6 -11 8 -16 4 -14 -8 9 -34 31 -34 56 0 70 44 20 61 -41 15 -39
33 2 23 29 -6 31 -5 19 10 -17 20 -55 21 -71 1z"/>
<path d="M1200 1275 c0 -42 3 -55 15 -55 12 0 15 13 15 55 0 42 -3 55 -15 55
-12 0 -15 -13 -15 -55z"/>
<path d="M1270 1275 c0 -30 5 -55 10 -55 6 0 10 15 10 33 l1 32 27 -33 c15
-18 30 -32 35 -32 4 0 7 25 7 55 0 30 -4 55 -10 55 -5 0 -10 -15 -10 -32 l-1
-33 -27 33 c-15 18 -30 32 -34 32 -5 0 -8 -25 -8 -55z"/>
<path d="M1400 1275 l0 -55 40 0 c22 0 40 5 40 10 0 6 -11 10 -25 10 -16 0
-25 6 -25 15 0 8 9 15 20 15 11 0 20 5 20 10 0 6 -9 10 -20 10 -11 0 -20 5
-20 10 0 6 11 10 25 10 14 0 25 5 25 10 0 6 -18 10 -40 10 l-40 0 0 -55z"/>
<path d="M1517 1324 c-17 -18 -5 -45 26 -58 28 -12 29 -15 13 -21 -11 -5 -21
-3 -26 6 -11 18 -24 5 -16 -16 4 -11 16 -15 38 -13 26 2 34 8 36 26 3 18 -3
26 -27 35 -40 15 -40 31 0 22 24 -5 30 -4 27 6 -5 15 -59 25 -71 13z"/>
<path d="M1623 1314 c-6 -17 20 -46 50 -57 6 -2 8 -8 4 -13 -4 -4 -17 -2 -28
5 -25 15 -37 7 -19 -14 16 -19 54 -19 70 0 15 18 1 40 -31 50 -29 10 -23 28 7
21 19 -5 25 -3 22 6 -7 21 -67 22 -75 2z"/>
<path d="M1794 1315 c-3 -8 -3 -19 1 -25 4 -6 1 -17 -5 -25 -19 -23 6 -45 49
-45 31 0 36 3 37 25 2 21 -2 25 -17 20 -21 -7 -25 5 -8 22 7 7 9 19 6 27 -8
20 -56 21 -63 1z m46 -9 c0 -11 -19 -15 -25 -6 -3 5 1 10 9 10 9 0 16 -2 16
-4z m-5 -56 c3 -5 -1 -10 -9 -10 -9 0 -16 5 -16 10 0 6 4 10 9 10 6 0 13 -4
16 -10z"/>
<path d="M1953 1316 c3 -8 11 -33 17 -55 14 -51 35 -53 51 -3 l12 37 12 -35
c17 -49 35 -44 56 18 14 41 15 52 4 52 -7 0 -19 -15 -25 -32 l-13 -33 -10 33
c-5 17 -15 32 -22 32 -6 0 -18 -15 -27 -32 l-15 -33 -7 33 c-5 19 -14 32 -23
32 -9 0 -13 -6 -10 -14z"/>
<path d="M2150 1275 l0 -55 35 0 c19 0 35 5 35 10 0 6 -11 10 -25 10 -16 0
-25 6 -25 15 0 8 9 15 20 15 11 0 20 5 20 10 0 6 -9 10 -20 10 -11 0 -20 5
-20 10 0 6 11 10 25 10 14 0 25 5 25 10 0 6 -16 10 -35 10 l-35 0 0 -55z"/>
<path d="M2260 1276 l0 -56 35 0 c33 0 64 28 48 44 -4 4 -7 19 -8 34 0 24 -4
27 -37 30 l-38 3 0 -55z m55 24 c3 -5 -3 -10 -14 -10 -12 0 -21 5 -21 10 0 6
6 10 14 10 8 0 18 -4 21 -10z m3 -47 c2 -8 -5 -13 -17 -13 -12 0 -21 6 -21 16
0 18 31 15 38 -3z"/>
<path d="M2380 1315 c-15 -17 -6 -33 26 -45 13 -5 24 -14 24 -20 0 -13 -27
-13 -35 0 -4 6 -11 8 -16 4 -14 -8 9 -34 31 -34 56 0 70 44 20 61 -41 15 -39
33 2 23 29 -6 31 -5 19 10 -17 20 -55 21 -71 1z"/>
<path d="M2490 1275 c0 -42 3 -55 15 -55 12 0 15 13 15 55 0 42 -3 55 -15 55
-12 0 -15 -13 -15 -55z"/>
<path d="M2550 1321 c0 -5 9 -11 20 -14 16 -4 20 -14 20 -46 0 -23 5 -41 10
-41 6 0 10 20 10 45 0 38 3 45 20 45 11 0 20 5 20 10 0 6 -22 10 -50 10 -27 0
-50 -4 -50 -9z"/>
<path d="M2680 1275 l0 -55 35 0 c19 0 35 5 35 10 0 6 -11 10 -25 10 -16 0
-25 6 -25 15 0 8 9 15 20 15 11 0 20 5 20 10 0 6 -9 10 -20 10 -11 0 -20 5
-20 10 0 6 11 10 25 10 14 0 25 5 25 10 0 6 -16 10 -35 10 l-35 0 0 -55z"/>
<path d="M2840 1275 c0 -54 0 -55 30 -55 34 0 70 30 70 58 0 28 -32 52 -68 52
l-32 0 0 -55z m68 6 c4 -23 -11 -41 -35 -41 -8 0 -13 14 -13 36 0 31 3 35 23
32 14 -2 23 -11 25 -27z"/>
<path d="M2970 1275 l0 -55 40 0 c22 0 40 5 40 10 0 6 -11 10 -25 10 -16 0
-25 6 -25 15 0 8 9 15 20 15 11 0 20 5 20 10 0 6 -9 10 -20 10 -11 0 -20 5
-20 10 0 6 9 10 20 10 11 0 20 5 20 10 0 6 -16 10 -35 10 l-35 0 0 -55z"/>
<path d="M3090 1278 c11 -29 20 -54 20 -55 0 -2 7 -3 15 -3 8 0 15 2 15 5 0 2
9 27 20 55 15 39 17 50 6 50 -7 0 -20 -17 -28 -37 l-14 -38 -13 38 c-7 20 -19
37 -27 37 -11 0 -10 -10 6 -52z"/>
<path d="M3210 1275 l0 -55 35 0 c19 0 35 5 35 10 0 6 -11 10 -25 10 -16 0
-25 6 -25 15 0 8 9 15 20 15 11 0 20 5 20 10 0 6 -9 10 -20 10 -11 0 -20 5
-20 10 0 6 11 10 25 10 14 0 25 5 25 10 0 6 -16 10 -35 10 l-35 0 0 -55z"/>
<path d="M3320 1275 l0 -55 35 0 c19 0 35 5 35 10 0 6 -11 10 -25 10 -23 0
-25 4 -25 45 0 25 -4 45 -10 45 -5 0 -10 -25 -10 -55z"/>
<path d="M3426 1314 c-34 -33 -9 -94 38 -94 50 0 78 57 46 95 -16 20 -64 19
-84 -1z m68 -26 c8 -14 7 -21 -6 -34 -30 -30 -75 9 -48 42 16 18 39 15 54 -8z"/>
<path d="M3560 1275 c0 -42 3 -55 15 -55 8 0 15 6 15 13 0 7 14 18 30 24 53
20 34 73 -27 73 l-33 0 0 -55z m58 18 c-5 -25 -28 -28 -28 -4 0 12 6 21 16 21
9 0 14 -7 12 -17z"/>
<path d="M3680 1275 c0 -30 5 -55 10 -55 6 0 10 14 10 32 0 30 0 31 20 13 19
-17 21 -17 40 0 20 18 20 17 20 -13 0 -18 5 -32 10 -32 6 0 10 25 10 55 0 42
-3 55 -15 55 -8 0 -15 -3 -15 -7 0 -5 -7 -17 -15 -27 -14 -19 -15 -18 -36 7
-30 40 -39 33 -39 -28z"/>
<path d="M3840 1275 l0 -55 40 0 c22 0 40 5 40 10 0 6 -11 10 -25 10 -16 0
-25 6 -25 15 0 8 9 15 20 15 11 0 20 5 20 10 0 6 -9 10 -20 10 -11 0 -20 5
-20 10 0 6 9 10 20 10 11 0 20 5 20 10 0 6 -16 10 -35 10 l-35 0 0 -55z"/>
<path d="M3950 1275 c0 -42 3 -55 15 -55 10 0 15 10 15 32 l0 33 23 -32 c33
-49 47 -42 47 22 0 42 -3 55 -15 55 -10 0 -15 -10 -15 -32 l0 -33 -22 32 c-34
49 -48 42 -48 -22z"/>
<path d="M4080 1320 c0 -5 7 -10 15 -10 11 0 15 -12 15 -45 0 -33 4 -45 15
-45 11 0 15 12 15 45 0 33 4 45 15 45 8 0 15 5 15 10 0 6 -20 10 -45 10 -25 0
-45 -4 -45 -10z"/>
</g>
</svg>
